<svg width="1120" height="48" viewBox="0 0 1120 48" fill="none" xmlns="http://www.w3.org/2000/svg">
<rect x="0.5" y="0.5" width="1119" height="47" rx="23.5" stroke="#D4DEFE"/>
<path fill-rule="evenodd" clip-rule="evenodd" d="M1087.8 27.8033C1084.87 30.7322 1080.13 30.7322 1077.2 27.8033C1074.27 24.8744 1074.27 20.1256 1077.2 17.1967C1080.13 14.2678 1084.87 14.2678 1087.8 17.1967C1090.73 20.1256 1090.73 24.8744 1087.8 27.8033ZM1088.15 28.8545C1084.81 31.8256 1079.69 31.7109 1076.49 28.5104C1073.17 25.191 1073.17 19.809 1076.49 16.4896C1079.81 13.1701 1085.19 13.1701 1088.51 16.4896C1091.71 19.6907 1091.83 24.8097 1088.85 28.1475L1093.46 32.7551C1093.66 32.9504 1093.66 33.267 1093.46 33.4622C1093.27 33.6575 1092.95 33.6575 1092.75 33.4622L1088.15 28.8545Z" fill="#432EAB"/>
</svg>
